<svg width="160" height="72" viewBox="0 0 160 72" fill="none" xmlns="http://www.w3.org/2000/svg">
<path d="M59.75 0V8H93.21V0H59.75Z" fill="#0C2729"/>
<path fill-rule="evenodd" clip-rule="evenodd" d="M80.4633 16H72.4967V32H78.0733V44H83.65V56H91.6167V40H86.04V28H80.4633V16Z" fill="#0C2729"/>
<path d="M70.9033 64V72H104.363V64H70.9033Z" fill="#0C2729"/>
<path d="M45.171 54.1029H14.4424L9.21857 72H0L21.7149 0H37.8986L59.6134 72H50.3949L45.171 54.1029ZM29.1921 3.70286L16.7983 46.08H42.8151L30.4213 3.70286H29.1921Z" fill="#0C2729"/>
<path d="M115.517 0H159.333V8.02286H124.076V31.8857H158.722V39.9086H124.076V72H115.517V0Z" fill="#0C2729"/>
</svg>
